<?xml version="1.0" encoding="UTF-8"?>
<!DOCTYPE svg PUBLIC "-//W3C//DTD SVG 1.1//EN" "http://www.w3.org/Graphics/SVG/1.1/DTD/svg11.dtd">
<!-- Creator: CorelDRAW X7 -->
<svg xmlns="http://www.w3.org/2000/svg" xml:space="preserve" width="2.54mm" height="2.54mm" version="1.1" style="shape-rendering:geometricPrecision; text-rendering:geometricPrecision; image-rendering:optimizeQuality; fill-rule:evenodd; clip-rule:evenodd"
viewBox="0 0 254 254"
 xmlns:xlink="http://www.w3.org/1999/xlink">
 <defs>
  <style type="text/css">
   <![CDATA[
    .fil0 {fill:white}
   ]]>
  </style>
 </defs>
 <g id="Слой_x0020_1">
  <metadata id="CorelCorpID_0Corel-Layer"/>
  <g id="_2206600638848">
   <path class="fil0" d="M204 172c-13,-12 -27,-20 -41,-8l-8 7c-7,5 -19,29 -60,-22 -42,-51 -16,-58 -10,-63l9 -7c14,-11 9,-26 0,-42l-6 -10c-10,-15 -20,-26 -34,-14l-8 6c-6,4 -23,18 -28,45 -6,33 9,71 43,113 34,42 69,64 102,64 27,1 44,-14 50,-19l7 -6c14,-12 6,-24 -7,-36l-9 -8z"/>
  </g>
 </g>
</svg>
