<?xml version="1.0" encoding="UTF-8"?>
<!DOCTYPE svg PUBLIC "-//W3C//DTD SVG 1.1//EN" "http://www.w3.org/Graphics/SVG/1.1/DTD/svg11.dtd">
<!-- Creator: CorelDRAW X7 -->
<svg xmlns="http://www.w3.org/2000/svg" xml:space="preserve" width="2.54mm" height="2.54mm" version="1.1" style="shape-rendering:geometricPrecision; text-rendering:geometricPrecision; image-rendering:optimizeQuality; fill-rule:evenodd; clip-rule:evenodd"
viewBox="0 0 254 254"
 xmlns:xlink="http://www.w3.org/1999/xlink">
 <defs>
  <style type="text/css">
   <![CDATA[
    .fil0 {fill:white}
   ]]>
  </style>
 </defs>
 <g id="Слой_x0020_1">
  <metadata id="CorelCorpID_0Corel-Layer"/>
  <g id="_2206599026480">
   <g id="XMLID_1844_">
    <path id="XMLID_1845_" class="fil0" d="M128 66c-20,0 -37,16 -37,37 0,5 4,9 9,9 5,0 9,-4 9,-9 0,-11 9,-20 19,-20 5,0 9,-4 9,-8 0,-5 -4,-9 -9,-9z"/>
    <path id="XMLID_1995_" class="fil0" d="M227 102c0,-56 -46,-100 -102,-98 -49,1 -90,40 -94,88 -1,10 -1,19 1,28l0 0c0,0 0,2 1,4 1,6 3,13 6,19 10,23 33,62 84,105 3,2 8,2 11,0 51,-43 74,-82 83,-105 3,-6 6,-13 7,-19 1,-2 1,-4 1,-4l0 0c1,-6 2,-12 2,-18zm-99 61c-33,0 -59,-27 -59,-60 0,-33 26,-60 59,-60 33,0 60,27 60,60 0,33 -27,60 -60,60z"/>
   </g>
  </g>
 </g>
</svg>
