<?xml version="1.0" encoding="iso-8859-1"?>
<!-- Generator: Adobe Illustrator 19.1.0, SVG Export Plug-In . SVG Version: 6.00 Build 0)  -->
<svg version="1.1" id="Capa_1" xmlns="http://www.w3.org/2000/svg" xmlns:xlink="http://www.w3.org/1999/xlink" x="0px" y="0px"
	 viewBox="0 0 480.239 480.239" style="enable-background:new 0 0 480.239 480.239;" xml:space="preserve">
<g>
	<g id="XMLID_1844_">
		<path id="XMLID_1845_" d="M240.11,121.014c-40.1,0-72.8,32.6-72.8,72.8c0,9.6,7.8,17.4,17.4,17.4c9.6,0,17.4-7.8,17.4-17.4
			c0-20.9,17-38,38-38c9.6,0,17.4-7.8,17.4-17.4S249.71,121.014,240.11,121.014z"/>
		<path id="XMLID_1995_" d="M431.71,191.614c0-108.1-89.5-195.2-198.4-191.5c-95.4,3.3-174.7,77.8-183.9,172.8
			c-1.8,19-0.8,37.4,2.6,55l0,0c0,0,0.3,2.1,1.2,6c3,13.2,7.3,26,12.9,38c19.3,45.6,63.7,121.8,163.3,204.5c6.2,5.1,15.1,5.1,21.3,0
			c99.7-82.7,144-158.9,163.3-204.5c5.6-12,9.9-24.8,12.9-38c0.9-3.9,1.2-6,1.2-6l0,0C430.51,216.114,431.71,204.014,431.71,191.614
			z M240.11,310.314c-64.4,0-116.5-52.2-116.5-116.5c0-64.4,52.2-116.5,116.5-116.5s116.5,52.2,116.5,116.5
			S304.51,310.314,240.11,310.314z"/>
	</g>
</g>
<g>
</g>
<g>
</g>
<g>
</g>
<g>
</g>
<g>
</g>
<g>
</g>
<g>
</g>
<g>
</g>
<g>
</g>
<g>
</g>
<g>
</g>
<g>
</g>
<g>
</g>
<g>
</g>
<g>
</g>
</svg>
