<svg width="62" height="62" viewBox="0 0 62 62" fill="none" xmlns="http://www.w3.org/2000/svg">
<circle cx="31" cy="31" r="30" stroke="white" stroke-opacity="0.2"/>
<path d="M38.9297 27.9214C38.9557 28.0256 38.9688 28.1948 38.9688 28.4292C38.9688 30.3042 38.513 32.1141 37.6016 33.8589C36.6641 35.7078 35.349 37.1792 33.6562 38.2729C31.8073 39.4969 29.6849 40.1089 27.2891 40.1089C24.9974 40.1089 22.901 39.4969 21 38.2729C21.2865 38.299 21.612 38.312 21.9766 38.312C23.8776 38.312 25.5833 37.7261 27.0938 36.5542C26.1823 36.5542 25.375 36.2938 24.6719 35.7729C23.9948 35.2261 23.526 34.549 23.2656 33.7417C23.526 33.7677 23.7734 33.7808 24.0078 33.7808C24.3724 33.7808 24.737 33.7417 25.1016 33.6636C24.1641 33.4552 23.3828 32.9735 22.7578 32.2183C22.1328 31.4631 21.8203 30.6037 21.8203 29.6401V29.562C22.3932 29.9006 23.0052 30.0828 23.6562 30.1089C23.1094 29.7183 22.6667 29.2235 22.3281 28.6245C21.9896 28.0256 21.8203 27.3745 21.8203 26.6714C21.8203 25.9422 22.0156 25.2521 22.4062 24.6011C23.4219 25.8771 24.6589 26.8927 26.1172 27.6479C27.6016 28.4032 29.1771 28.8198 30.8438 28.8979C30.7917 28.5854 30.7656 28.2729 30.7656 27.9604C30.7656 27.2313 30.9479 26.5542 31.3125 25.9292C31.6771 25.2782 32.1719 24.7703 32.7969 24.4058C33.4219 24.0412 34.099 23.8589 34.8281 23.8589C35.4271 23.8589 35.974 23.9761 36.4688 24.2104C36.9896 24.4448 37.4453 24.7573 37.8359 25.1479C38.7734 24.9657 39.6458 24.6401 40.4531 24.1714C40.1406 25.1349 39.5417 25.8901 38.6562 26.437C39.4375 26.3328 40.2188 26.1115 41 25.7729C40.4271 26.6063 39.737 27.3224 38.9297 27.9214Z" fill="white"/>
</svg>
